<svg xmlns="http://www.w3.org/2000/svg" viewBox="0 0 268.47 268.47"><defs><style>.cls-1{fill:#0274be;}</style></defs><g id="图层_2" data-name="图层 2"><g id="图层_1-2" data-name="图层 1"><path class="cls-1" d="M134.23,0A134.24,134.24,0,1,0,268.47,134.23,134.23,134.23,0,0,0,134.23,0Zm18.32,70.71C132.47,54.16,104.92,69,103.92,94.8c-.35,9,0,18.12,0,27.18v7.27h0V146.6h0v51.16a6.81,6.81,0,0,0,6.86,6.73h48.47c.37,0,.72-.11,1.1-.11h16.2a13.18,13.18,0,0,1,13.18,13.18v.38a13.13,13.13,0,0,1-11.85,13s0,.09,0,.13H110.76c-18.73,0-34-15-34-33.35V146.6h0c-.08-17-.06-33.24.43-55.19.41-18.72,10-33.67,25.66-44.22a70.93,70.93,0,0,1,12.79-6.51,49.41,49.41,0,0,1,16.07-3.25A55.36,55.36,0,0,1,148.11,39a61.2,61.2,0,0,1,15.14,6.39c34.58,19.74,38.57,72.57,6.64,96.41a267.54,267.54,0,0,1-26.41,16.86l-.09.08c-.08.05-.18.07-.26.12l-.24.14s0,0,0,0c-6.27,3.44-14.84,1.61-18.59-4.52l-.2-.33a13.37,13.37,0,0,1,4.43-18.38l.93-.57a11.29,11.29,0,0,1,1.63-1.19v0c5.73-3.36,11.44-6.76,17.09-10.25C167,112,169.7,84.85,152.55,70.71Z"/></g></g></svg>